Patient4_TMGait_0pt8_01_left_46_EMG.mot
version=1
nRows=26
nColumns=33
inDegrees=no
endheader
time	1LAddLong	2LGlutMax	3LGlutMed	4LIliopsoas	5LSemiMemb	6LBicFemLong	7LRecFem	8LVastMed	9LVastLat	10LGasMed	11LTibAnt	12lTibPost	13LPeroneusLong	14LSol	15LExtDigLong	16LFlexDigLong	17RAddLong	18RGlutMax	19RGlutMed	20RIliopsoas	21RSemiMemb	22RBicFemLong	23RRecFem	24RVastMed	25RVastLat	26RGasMed	27RTibAnt	28RTibPost	29RPeroneusLong	30RSol	31RExtDigLong	32RFlexDigLong
51.995	0.00885	-0.046387	0.003662	-0.01297	0.017395	-0.003967	-0.093384	0.005951	0.008698	0.034027	0.02533	-0.037384	-0.076904	0.059357	-0.088654	-0.002594	0.032349	0.13199	-0.72174	-0.028076	-0.39063	-0.32196	-0.015106	-0.20111	-0.010223	0.016174	-0.48721	-0.001373	0.80063	-0.23499	-0.005493	0.008545
51.996	0.009766	0.011749	-0.014648	0.005646	0.023651	-0.032501	-0.084381	0.004578	0.021362	0.049133	0.007629	-0.024567	-0.054779	0.10727	-0.10147	0.009308	0.021057	0.10757	-0.46417	-0.036774	-0.21332	-0.25971	-0.13748	0.12314	-0.003662	0.017242	-0.42328	0.005035	0.95779	-0.22476	-0.003815	0.013123
51.997	0.016327	0.005798	-0.01297	0.027313	0.03067	-0.050049	-0.084686	0.001831	0.019226	0.067596	0.004272	-0.025177	0.034943	0.16174	-0.19196	-0.012665	-0.10346	0.049133	-0.060272	-0.048523	-0.74097	0.077515	-0.1503	0.50964	-0.077972	0.013123	-0.271	-0.001678	0.52292	-0.13092	-0.005341	-0.001068
51.998	0.006104	0.020752	0.061035	0.032043	0.026703	-0.023346	-0.068817	0.006866	0.021667	0.081329	-0.027161	-0.020294	0.45364	0.19287	-0.089264	0.005493	-0.1947	0.059662	0.2005	-0.038605	-0.71564	0.094604	0.014648	0.64789	-0.11231	0.003662	-0.15503	0.000305	0.37842	0.009766	-0.007935	-0.014954
51.999	0.00824	0.032654	0.007629	0.026093	0.009308	-0.018616	-0.099335	0.00824	0.040894	0.077209	-0.010834	-0.030975	0.36438	0.24674	0.041504	-0.011139	-0.27954	-0.000458	-0.10468	-0.095673	-0.45136	-0.002899	0.12924	0.70496	-0.12756	0.004883	-0.23438	-0.002594	0.17441	0.055847	-0.00824	0.002441
52	-0.007324	0.045624	0.040131	0.010986	0.019226	-0.00061	-0.070953	0.002594	0.039825	0.061035	-0.00061	-0.02182	0.11627	0.15686	0.16205	-0.016632	-0.26321	-0.068512	0.26443	-0.11429	0.1416	-0.15091	0.1506	0.59113	-0.059662	0.019379	-0.30395	-0.001373	0.016174	0.17883	-0.011444	-0.001373
52.001	0.005341	0.062714	0.029297	0.022278	0.015106	0.005798	-0.075378	0.003204	0.05127	-0.032196	-0.02121	-0.01709	-0.18662	0.021667	0.25757	-0.005493	-0.2002	-0.056458	0.64987	-0.11154	0.33432	-0.43945	0.058289	0.49362	-0.001831	0.008087	-0.23468	-0.003204	0.15793	0.17593	-0.00473	-0.005035
52.002	0.005188	0.026703	0.000763	0.021057	0.01297	0.013733	-0.044403	0.005035	0.042725	-0.17395	-0.007324	-0.020752	-0.38727	-0.005493	0.16647	-0.001068	-0.12817	-0.10315	-0.14572	0.013275	-0.21286	-0.41794	-0.036011	0.34805	0.061798	0.010529	-0.000153	-0.004578	0.25253	0.20157	-0.005798	-0.00412
52.003	0.007477	0.013275	0.023651	0.000763	0.00473	-0.010834	-0.062408	0.005035	0.054169	-0.15717	0.001678	-0.016785	-0.10147	-0.023346	0.052032	0.002441	-0.077362	-0.13641	-0.38376	0.15472	-0.34363	-0.25299	-0.13931	0.18234	0.42175	0.00946	0.089722	-0.005493	0.23727	0.22003	-0.003662	-0.00824
52.004	0.005493	0.026855	0.048523	0.001221	0.017853	-0.008698	-0.038452	-0.002441	0.074005	-0.08728	-0.005188	-0.010986	0.16098	-0.22705	-0.022125	-0.002594	-0.023956	-0.17654	-0.16083	0.13718	-0.42679	-0.20996	-0.088654	-0.18402	0.46081	0.005341	0.14008	-0.002899	-0.048828	0.21805	-0.006866	-0.001526
52.005	0.007172	0.055084	0.074463	-0.014191	0.010834	0.015106	-0.043945	0.000153	0.089569	-0.12177	-0.000763	-0.008698	-0.20447	-0.12451	0.044098	0.00351	-0.04837	-0.13901	-0.11826	0.051422	-0.55023	-0.23865	-0.08667	-0.31784	0.27435	0.010834	0.14816	-0.003204	-0.4097	0.16464	-0.006561	-0.004578
52.006	0.009308	0.039063	0.075989	-0.006104	0.014496	0.011749	-0.057526	0.011444	0.11505	-0.13336	0.002289	-0.027466	-0.168	-0.036621	0.06012	0.015869	-0.10651	-0.1648	0.42374	0.010376	-0.54367	-0.15671	-0.098572	-0.32837	-0.041351	0.005493	0.026398	0.000763	-0.44968	-0.001221	-0.007324	-0.003052
52.007	-0.034485	0.032654	0.077057	-0.005951	0.011902	0.01236	-0.066528	0.002899	0.12756	-0.086823	-0.008087	-0.028839	-0.26535	-0.055389	-0.013428	-0.014496	-0.17731	-0.21988	0.37827	0.004425	-0.28137	-0.15747	-0.05722	-0.24323	0.12039	-0.000153	-0.018616	-0.003815	-0.059204	0.010986	-0.007477	-0.013123
52.008	0.001831	0.04303	0.13626	-0.012512	0.015411	0.000153	-0.044098	-0.002899	0.12665	-0.005493	-0.013123	-0.018158	0.17792	-0.053101	-0.017395	-0.039825	-0.18173	-0.12665	0.055084	0.002136	-0.045624	-0.2327	0.082092	-0.22461	0.38101	-0.002899	0.003967	-0.006256	0.38452	0.053558	-0.004272	-0.012512
52.009	-0.015717	0.093079	0.14343	0.006866	0.017548	0.012512	-0.04303	-0.002289	0.13367	0.22446	-0.028534	-0.01297	0.059967	-0.043945	-0.030975	-0.003815	-0.060577	0.044861	-0.12817	-0.032043	-0.10864	-0.20294	-0.015869	-0.32791	0.33966	0.001373	-0.082245	-0.003967	0.30258	0.10956	-0.003357	-0.023956
52.01	0.012207	0.084381	0.1445	-0.005798	0.011749	0.012207	-0.028381	0.007935	0.13077	-0.009766	-0.026855	-0.00824	-0.077057	-0.32562	-0.072784	0.02533	0.048981	0.12817	-0.35431	-0.072479	-0.082703	-0.40359	-0.29633	-0.36011	0.044861	-0.003357	-0.12116	-0.002747	0.25085	0.046234	-0.005493	-0.013428
52.011	-0.001526	0.056763	0.080109	0.002289	0.012512	0.007324	-0.041809	-0.003204	0.10757	0.25055	-0.025024	-0.015564	-0.09491	-0.56519	-0.024567	0.027008	0.11444	0.23453	-0.65109	-0.005798	-0.39459	-0.67658	-0.12405	-0.16342	-0.4747	-0.014038	-0.063019	-0.000153	0.20584	-0.007019	-0.004272	-0.01709
52.012	0.000153	0.092163	0.060425	0.009308	0.014343	0.015869	-0.039673	0.001831	0.11276	0.354	-0.029602	0.002289	0.098267	-0.26764	0.059814	-0.025482	0.077972	0.215	-0.94818	-0.007324	-0.39764	-0.78018	0.24353	0.23117	-0.53863	-0.012054	-0.043793	-0.003357	0.21744	-0.001678	-0.006409	-0.005188
52.013	-0.000305	0.094452	0.096893	-0.00885	0.016022	0.029755	-0.011444	0.000916	0.097656	-0.016022	-0.015259	0.012207	0.14572	-0.30563	0.005188	-0.024109	-0.034637	0.13886	-0.55557	0.005798	-0.12726	-0.60455	0.30853	0.40665	-0.44739	0.004883	-0.064545	-0.000458	-0.31799	-0.044861	-0.012817	-0.009918
52.014	0.011597	0.11765	0.11337	-0.007019	0.011902	0.012207	0.00412	0.004883	0.090485	-0.16098	-0.000305	0.002289	-0.0383	-0.11002	-0.050507	-0.011292	-0.11856	0.06073	0.15945	0.014038	0.027161	-0.46478	0.23911	0.62592	-0.35111	0.001068	-0.055542	-0.002899	-0.39307	-0.079041	-0.005951	-0.011597
52.015	0.003815	0.077515	0.092621	0.031891	0.013885	0.007782	0.017242	0.004425	0.086975	-0.11963	-0.009003	-0.00351	-0.021667	0.19455	-0.0354	-0.016632	-0.071259	-0.081635	0.17548	-0.006256	0.32852	-0.19745	0.03952	0.67154	-0.31372	0.009766	0.068665	-0.002136	-0.1506	-0.02594	-0.002899	-0.008087
52.016	0.004578	0.099792	0.074921	0.000763	0.018311	0.008698	-0.021057	0.005951	0.081329	0.10681	-0.067749	-0.002899	0.037384	0.29068	-0.038757	-0.001068	-0.003052	-0.11139	-0.21103	-0.020294	0.29648	0.054016	-0.065002	0.37384	-0.28168	0.002594	0.10559	-0.003052	-0.16769	0.013123	-0.004272	-0.00824
52.017	0.004883	0.085449	0.061188	-0.002747	0.018311	0.009003	0.001221	0.006256	0.083923	0.24841	0.009308	0.000763	0.005951	0.35919	-0.016632	0.008392	0.067749	-0.11993	-0.22263	-0.034332	0.17075	-0.59784	-0.081482	0.0737	-0.23102	-0.002441	0.1062	-0.002899	-0.22659	-0.049591	-0.004272	-0.00824
52.018	0.00885	0.099335	0.034332	-0.009308	0.015411	0.001831	-0.001984	0.006104	0.065002	0.43182	0.04425	0.002594	-0.009308	0.39414	-0.014801	0.010834	0.054321	-0.078125	0.04364	-0.0914	-0.17578	-0.6514	-0.075531	-0.074005	-0.30701	-0.003357	0.058899	0.000153	0.14297	-0.035095	-0.006104	-0.004883
52.019	0.006409	0.1265	-0.0177	-0.00412	0.009308	0.016785	-0.00885	0.00351	0.064087	0.41992	0.017395	-0.000305	-0.053101	0.43579	-0.044708	0.016327	0.020752	0.02533	0.345	-0.13886	-0.43274	-0.3421	0.071106	-0.26535	-0.086365	-0.003967	0.045013	-0.00824	0.26932	0.014191	-0.003967	-0.010376
52.02	0.007782	0.10025	0.017548	0.003204	0.042725	0.009766	-0.013275	-0.005035	0.058594	0.31189	-0.019073	-0.007629	-0.02182	0.27725	-0.005798	0.001984	0.018616	-0.009003	0.006256	-0.069733	-0.60013	-0.14221	0.19058	-0.43228	-0.076904	-0.000763	0.083923	-0.001984	0.029297	-0.022888	-0.002594	-0.01297
